<?xml version="1.0" encoding="UTF-8"?>
<svg xmlns="http://www.w3.org/2000/svg" id="iconfinder" viewBox="0 0 24 24" width="512" height="512"><path d="M12,10.04c-.52,0-1.01,.11-1.45,.29,.61,.21,1.04,.79,1.04,1.47,0,.86-.7,1.55-1.55,1.55-.68,0-1.25-.43-1.47-1.04-.19,.45-.29,.94-.29,1.46,0,2.06,1.67,3.73,3.73,3.73s3.73-1.67,3.73-3.73c0-2.06-1.67-3.73-3.73-3.73Z"/><path d="M17.04,5.68c-2.4-1.49-5.39-1.87-8.15-.92h0c1.31-.96,2.93-1.52,4.68-1.52,.98,0,1.91,.15,2.77,.48,.06,.02,.13,.03,.16,.03,.21,0,.36-.14,.36-.34,0-.14-.07-.25-.15-.33C14.43,.96,12,.09,12,.09,6.57,2.26,2.58,7.51,2.47,13.51c-.05,1.71,.36,3.45,1.27,5.03,.54,.94,1.22,1.76,2,2.43-1.49-.66-2.78-1.78-3.66-3.29-.49-.85-.82-1.73-.97-2.64-.01-.06-.04-.13-.05-.16-.1-.18-.3-.24-.48-.14-.12,.07-.18,.18-.21,.3-.68,3.04-.22,5.58-.22,5.58,4.66,3.67,11.32,4.47,16.61,1.42,2.49-1.44,4.08-3.82,4.59-6.44h0c.17,1.62-.15,3.3-1.02,4.82-.49,.85-1.09,1.58-1.8,2.16-.05,.04-.09,.1-.11,.12-.1,.18-.06,.38,.12,.48,.12,.07,.25,.07,.36,.03,2.97-.93,4.94-2.6,4.94-2.6,.83-5.77-1.7-11.83-6.81-14.93Zm-5.04,14.31c-4.35,0-7.88-3.05-7.88-6.81,0-.4,.04-.79,.12-1.18,1.63-1.68,4.5-2.79,7.76-2.79s6.12,1.11,7.76,2.79c.08,.38,.12,.77,.12,1.18,0,3.76-3.53,6.81-7.88,6.81Z"/></svg>
