<?xml version="1.0" encoding="UTF-8"?>
<svg xmlns="http://www.w3.org/2000/svg" id="freepik-1" viewBox="0 0 24 24" width="512" height="512"><path d="M2.93,9.38c-.16-.06-.43-.17-.74-.13-.29,.04-.45,.19-.45,.54v.46h1.19v.92H1.75v2.93H.72v-2.93H0v-.92H.72v-.48c0-.9,.48-1.49,1.37-1.49,.34,0,.62,.07,.85,.17v.92Z"/><path d="M5.44,11.18c-.1-.02-.19-.03-.28-.03-.48,0-.81,.29-.81,.87v2.1h-1.03v-3.85h1v.42c.25-.36,.6-.52,1.08-.52,.22,0,.45,.07,.58,.19l-.54,.82Z"/><path d="M9.53,12.19c0,.12,0,.27-.02,.35h-2.72c.11,.56,.5,.8,.98,.8,.33,0,.69-.13,.96-.37l.6,.66c-.44,.4-.99,.58-1.63,.58-1.17,0-1.99-.8-1.99-2.02s.79-2.04,1.94-2.04c1.1,0,1.85,.82,1.86,2.02h0Zm-2.73-.36h1.69c-.1-.5-.39-.77-.83-.77-.49,0-.77,.29-.86,.77h0Z"/><path d="M13.61,12.19c0,.12,0,.27-.02,.35h-2.72c.11,.56,.5,.8,.98,.8,.33,0,.69-.13,.96-.37l.6,.66c-.44,.4-.99,.58-1.63,.58-1.17,0-1.99-.8-1.99-2.02s.79-2.04,1.94-2.04c1.1,0,1.85,.82,1.86,2.02h0Zm-2.73-.36h1.69c-.1-.5-.39-.77-.83-.77-.48,0-.77,.29-.86,.77h0Z"/><path d="M18.06,12.19c0,1.16-.8,2.03-1.85,2.03-.52,0-.88-.2-1.12-.5v1.99h-1.03v-5.44h1.01v.42c.25-.31,.61-.52,1.14-.52,1.06,0,1.85,.87,1.85,2.02h0Zm-3.03,0c0,.6,.4,1.06,.98,1.06s.99-.47,.99-1.06-.38-1.06-.99-1.06c-.58,0-.98,.46-.98,1.06Z"/><path d="M19.72,9c0,.37-.29,.66-.66,.66s-.66-.29-.66-.66,.29-.66,.66-.66,.66,.29,.66,.66Zm-.14,5.11h-1.03v-3.85h1.03v3.85Z"/><path d="M21.29,11.63l1.44-1.37h1.26l-1.86,1.81,1.87,2.04h-1.27l-1.45-1.57v1.56h-1.03v-5.72h1.03v3.25h.01Z"/></svg>
