<?xml version="1.0" encoding="UTF-8"?>
<svg xmlns="http://www.w3.org/2000/svg" id="flaticon-1" viewBox="0 0 24 24" width="512" height="512"><path d="M4.1,14.61h-.95v-5.22h.95v5.22Z"/><path d="M8.25,14.61h-.92v-.39c-.26,.32-.65,.49-1.05,.48-.97,0-1.7-.8-1.7-1.85s.74-1.85,1.7-1.85c.41-.01,.8,.17,1.05,.49v-.39h.92v3.51Zm-2.71-1.76c0,.54,.35,.97,.9,.97s.9-.41,.9-.97-.37-.97-.9-.97-.9,.44-.9,.97h0Z"/><path d="M12.97,9.94c0,.33-.27,.6-.6,.6-.33,0-.6-.27-.6-.6,0-.33,.27-.6,.6-.6,.33,0,.6,.27,.6,.6h0Zm-.13,4.66h-.95v-3.52h.95v3.52Z"/><path id="_Trazado_" data-name=" Trazado " d="M2.68,10.29c-.21-.09-.44-.13-.67-.12-.27,.03-.41,.17-.41,.49v.43h1.09v.85H1.6v2.68H.65v-2.68H0v-.84H.65v-.44c0-.83,.44-1.36,1.26-1.36,.27,0,.53,.05,.78,.15v.85Z"/><path d="M10.67,13.82c-.29,0-.53-.16-.53-.59v-1.29h1.27v-.84h-1.27v-1.05h-.95v1.05h-.48v.84h.48v1.36c0,.91,.44,1.41,1.31,1.41,.31,0,.62-.07,.9-.21l-.36-.76c-.12,.06-.25,.09-.39,.09Z"/><path d="M20.2,12.85c0,1.05-.81,1.85-1.9,1.85s-1.9-.79-1.9-1.85,.8-1.85,1.9-1.85,1.9,.8,1.9,1.85Zm-2.84,0c0,.57,.4,.97,.93,.97s.94-.4,.94-.97-.4-.97-.94-.97-.92,.4-.92,.97h0Z"/><path d="M24,12.37v2.24h-.95v-1.93c0-.51-.25-.79-.69-.79s-.75,.27-.75,.8v1.93h-.94v-3.52h.92v.41c.25-.38,.64-.51,1.03-.51,.8,0,1.37,.57,1.37,1.38Z"/><path d="M15.94,13.46h0c-.18,.2-.42,.33-.69,.35h-.08l-.15-.02c-.27-.05-.5-.22-.62-.47-.07-.15-.1-.32-.1-.49,0-.17,.03-.34,.11-.49,.12-.25,.36-.42,.63-.46h.2c.27,.02,.52,.14,.69,.35l.46-.8c-.19-.17-.43-.29-.68-.36-.17-.04-.34-.07-.51-.07-.21,0-.42,.03-.63,.09-.25,.08-.48,.21-.67,.39-.38,.36-.58,.86-.57,1.37-.01,.51,.19,1.01,.56,1.36,.19,.18,.42,.31,.67,.39,.21,.07,.43,.1,.64,.1,.18,0,.35-.02,.52-.07,.25-.07,.48-.19,.68-.37l-.48-.81Z"/></svg>
