<?xml version="1.0" encoding="UTF-8"?>
<!-- Generator: Adobe Illustrator 26.0.1, SVG Export Plug-In . SVG Version: 6.00 Build 0)  -->
<svg xmlns="http://www.w3.org/2000/svg" xmlns:xlink="http://www.w3.org/1999/xlink" version="1.1" id="Capa_1" x="0px" y="0px" viewBox="0 0 24 24" style="enable-background:new 0 0 24 24;" xml:space="preserve" width="512" height="512">
<g id="Illustrator_Draw">
	<g id="Group_27">
		<path style="fill-rule:evenodd;clip-rule:evenodd;" d="M19.886,0.333H3.687C0.691,0.333,0,2.116,0,5.115l0.013,14.552    c0,3,0.934,4,3.929,4h16.057c2.995,0,4.001-1.001,4.001-3.999V4.564C24,1.566,22.881,0.333,19.886,0.333z M11.386,6.065h2.323    c0,1.295,1.543,3.196,2.193,3.573l-2.967,5.599h-0.067v-3.803c0.336-0.128,0.557-0.452,0.555-0.811    c-0.012-0.481-0.407-0.865-0.889-0.863c-0.351,0.004-0.665,0.219-0.796,0.546c-0.178,0.445,0.038,0.95,0.483,1.129v3.801h-0.041    L9.193,9.624C9.736,9.165,11.386,7.144,11.386,6.065z M19.701,6.346l-6.973,12.558c-0.039,0.07-0.114,0.114-0.195,0.114    c-0.037,0-0.074-0.01-0.107-0.028c-0.029-0.017-0.055-0.04-0.073-0.068l-0.003-0.005c0,0-7.605-11.086-7.796-11.354    C4.393,7.393,4.303,7.167,4.302,6.932V6.931C4.3,6.428,4.706,6.019,5.209,6.017c0.392,0.001,0.626,0.242,0.869,0.655l6.46,11.662    L19.314,6.13l0.001,0c0.06-0.107,0.194-0.145,0.301-0.085C19.722,6.105,19.76,6.239,19.701,6.346z"/>
	</g>
</g>















</svg>
