<?xml version="1.0" encoding="UTF-8"?>
<!-- Generator: Adobe Illustrator 26.0.1, SVG Export Plug-In . SVG Version: 6.00 Build 0)  -->
<svg xmlns="http://www.w3.org/2000/svg" xmlns:xlink="http://www.w3.org/1999/xlink" version="1.1" id="Capa_1" x="0px" y="0px" viewBox="0 0 24 24" style="enable-background:new 0 0 24 24;" xml:space="preserve" width="512" height="512">
<g id="Layer_2_00000139992070164898275570000017758719175361977789_">
	<g id="Surfaces_00000005262748026417272620000000272620920402432403_">
		<g id="Drawing_Surface_1_">
			<g id="Outline_no_shadow_00000031186969925551911540000009553510160061498536_">
				<path d="M9.75,8.14H9.73l-1.24,4.17h2.54L9.75,8.14z M9.75,8.14H9.73l-1.24,4.17h2.54L9.75,8.14z M19.75,0.3H4.25      C1.9,0.3,0,2.2,0,4.55v14.9c0,2.35,1.9,4.25,4.25,4.25h15.5c2.35,0,4.25-1.9,4.25-4.25V4.55C24,2.2,22.1,0.3,19.75,0.3z       M14.7,16.83h-2.09c-0.07,0.01-0.14-0.04-0.16-0.11l-0.82-2.38H7.91l-0.76,2.35c-0.02,0.09-0.1,0.15-0.19,0.14H5.08      c-0.11,0-0.14-0.06-0.11-0.18l3.22-9.27c0.03-0.1,0.06-0.21,0.1-0.33C8.33,6.84,8.35,6.62,8.35,6.4      C8.34,6.35,8.38,6.3,8.43,6.29h2.59c0.08,0,0.12,0.03,0.13,0.08l3.65,10.3C14.83,16.78,14.8,16.83,14.7,16.83z M18.1,16.68      c0,0.11-0.04,0.16-0.13,0.16h-1.96c-0.1,0-0.15-0.06-0.15-0.16v-7.7c0-0.1,0.04-0.14,0.13-0.14h1.98c0.09,0,0.13,0.05,0.13,0.14      V16.68z M17.89,7.65C17.66,7.89,17.32,8.02,16.98,8c-0.33,0.01-0.65-0.12-0.89-0.35c-0.23-0.25-0.35-0.58-0.34-0.92      c-0.01-0.34,0.12-0.66,0.36-0.89c0.24-0.23,0.56-0.35,0.89-0.35c0.39,0,0.69,0.12,0.91,0.35c0.22,0.24,0.34,0.56,0.33,0.89      C18.25,7.07,18.13,7.4,17.89,7.65z M9.73,8.14l-1.24,4.17h2.54L9.75,8.14H9.73z"/>
			</g>
		</g>
	</g>
</g>















</svg>
