<?xml version="1.0" encoding="UTF-8"?>
<svg xmlns="http://www.w3.org/2000/svg" id="freepik" viewBox="0 0 24 24" width="512" height="512"><g id="jsxjc-link"><path id="jsxjc" d="M4.3,6.89c-.66,.69-1.25,1.47-1.72,2.3l-.73-.38c-.11-.47-.55-.78-1.03-.73-.52,.06-.88,.54-.81,1.06,.03,.3,.21,.57,.48,.71s.59,.16,.85,.02l.7,.39c-.4,.88-.67,1.8-.83,2.75l1.17,.22c.37-2.07,1.34-3.98,2.79-5.5l-.86-.84Z"/></g><g id="jsxjd-link"><path id="jsxjd" d="M12.86,3.25l-.79,.02-.11-.99c.28-.23,.46-.61,.41-1.02-.13-.57-.65-.93-1.23-.86-.58,.07-1,.56-.99,1.14,.05,.4,.3,.73,.63,.88l.11,.99c-1.12,.18-2.19,.53-3.21,1.03l.52,1.08c2.17-1.05,4.62-1.33,6.97-.81l.25-1.17c-.82-.19-1.67-.29-2.55-.29Z"/></g><g id="jsxje-link"><path id="jsxje" d="M23.17,7.27c.25-.03,.48-.16,.63-.37,.16-.2,.22-.46,.19-.7-.03-.25-.16-.48-.36-.63-.2-.16-.45-.23-.69-.2-.48,.06-.83,.49-.83,.95l-.65,.58c-.65-.68-1.4-1.29-2.2-1.81l-.62,1.01c1.76,1.12,3.14,2.73,4,4.63l1.08-.49c-.39-.87-.88-1.7-1.47-2.45l.61-.57c.13,.06,.21,.06,.32,.04Z"/></g><g id="jsxjf-link"><path id="jsxjf" d="M12.02,19.39c-.61,.04-1.21,.06-1.82,.06-1.37,0-2.7-.09-3.87-.29-.67-.11-1.34-.27-1.98-.48,1.9,3.42,5.7,5.34,9.58,4.86s7.09-3.27,8.1-7.05c-1.2,.76-2.49,1.36-3.84,1.79-2,.63-4.09,1.01-6.18,1.11h0Z"/></g><g id="jsxjg-link"><path id="jsxjg" d="M22.28,13.86c.03,.31,.07,.61,.07,.91-2.15,1.91-5.91,3.15-10.41,3.42-4.13,.25-7.3-.4-8.35-1.16-.59-2.79,.12-5.69,1.91-7.91s4.5-3.49,7.35-3.49c4.79,0,8.84,3.54,9.42,8.22Zm-9.89-.83c0-1.61-1.28-2.92-2.88-2.92-.77,0-1.51,.32-2.04,.86-.54,.55-.84,1.29-.83,2.05,0,1.6,1.28,2.92,2.88,2.92,1.6,0,2.89-1.32,2.88-2.92h0Zm6.63-.67c0-1.17-.94-2.12-2.12-2.13-1.17,0-2.11,.96-2.11,2.13,0,1.17,.94,2.13,2.11,2.14,1.18,0,2.12-.94,2.12-2.14h0Z"/></g></svg>
