<?xml version="1.0" encoding="UTF-8"?>
<!-- Generator: Adobe Illustrator 26.0.1, SVG Export Plug-In . SVG Version: 6.00 Build 0)  -->
<svg xmlns="http://www.w3.org/2000/svg" xmlns:xlink="http://www.w3.org/1999/xlink" version="1.1" id="Capa_1" x="0px" y="0px" viewBox="0 0 24 24" style="enable-background:new 0 0 24 24;" xml:space="preserve" width="512" height="512">
<g>
	<path d="M12.079,0c0.036,0,0.073,0,0.109,0.001c2.948,0.027,5.879,1.086,8.041,2.905c2.285,1.923,3.544,4.533,3.544,7.348   c0,2.951-2.873,5.352-6.404,5.352c-0.889,0-1.749-0.149-2.557-0.444c-0.221-0.081-0.38-0.257-0.435-0.483   c-0.057-0.231,0.004-0.467,0.167-0.645c0.559-0.614,0.867-1.41,0.867-2.241c0-0.798-0.31-1.645-0.62-2.372   c-0.348-0.816-0.84-1.591-1.46-2.228C11.997,5.824,10.17,5.13,7.901,5.13c-2.27,0-5.346,0.566-7.105,3.26   C0.79,8.399,0.784,8.408,0.778,8.418C2.234,3.548,6.757,0,12.079,0z"/>
	<path d="M3.643,20.511c-2.23-2.25-3.443-5.234-3.415-8.404c0.004-0.069,0.071-1.198,0.721-2.442   C1.145,9.29,1.381,8.933,1.649,8.605C2.835,7.159,4.637,6.442,6.464,6.24c1.807-0.2,3.751-0.044,5.322,0.951   c0.002,0.001,0.003,0.002,0.005,0.003c0.852,0.542,1.578,1.352,2.061,2.237c0.001,0.001,0.001,0.002,0.002,0.003   c-0.544-0.359-1.189-0.561-1.872-0.554c-0.537,0.006-1.053,0.174-1.546,0.374c-1.568,0.639-2.789,1.827-3.544,3.454   c-0.739,1.593-0.952,3.463-0.6,5.266c0.358,1.831,1.289,3.452,2.623,4.565c0.352,0.294,0.735,0.555,1.136,0.776   c0.521,0.287,1.082,0.512,1.655,0.672c0.013,0.004,0.025,0.008,0.038,0.011C8.678,23.931,5.81,22.698,3.643,20.511z"/>
	<path d="M22.417,18.496c-1.645,2.606-4.298,4.5-7.283,5.198c-0.325,0.015-0.649,0.016-0.973-0.001   c-1.276-0.064-2.55-0.396-3.646-1.064c-0.269-0.164-0.539-0.356-0.784-0.561c-1.225-1.023-2.082-2.518-2.413-4.21   c-0.328-1.677-0.131-3.413,0.554-4.889c0.269-0.58,0.618-1.124,1.042-1.602c0.156-0.176,0.323-0.343,0.499-0.499   c-0.205,0.454-0.314,0.956-0.304,1.471c0.039,1.938,0.959,3.751,2.592,5.106c1.62,1.344,3.761,2.085,6.028,2.085   c1.635,0,3.226-0.39,4.601-1.128c0.012-0.006,0.044-0.023,0.079,0.014C22.444,18.453,22.424,18.484,22.417,18.496z"/>
</g>















</svg>
